<?xml version="1.0" encoding="UTF-8" standalone="no"?>
<!-- Created with Inkscape (http://www.inkscape.org/) -->

<svg
   xmlns:dc="http://purl.org/dc/elements/1.1/"
   xmlns:cc="http://creativecommons.org/ns#"
   xmlns:rdf="http://www.w3.org/1999/02/22-rdf-syntax-ns#"
   xmlns:svg="http://www.w3.org/2000/svg"
   xmlns="http://www.w3.org/2000/svg"
   xmlns:sodipodi="http://sodipodi.sourceforge.net/DTD/sodipodi-0.dtd"
   xmlns:inkscape="http://www.inkscape.org/namespaces/inkscape"
   width="744.09448819"
   height="1052.3622047"
   id="svg3248"
   version="1.1"
   inkscape:version="0.48.4 r9939"
   sodipodi:docname="body.svg">
  <defs
     id="defs3250" />
  <sodipodi:namedview
     id="base"
     pagecolor="#ffffff"
     bordercolor="#666666"
     borderopacity="1.0"
     inkscape:pageopacity="0.0"
     inkscape:pageshadow="2"
     inkscape:zoom="0.26608167"
     inkscape:cx="901.84097"
     inkscape:cy="603.31628"
     inkscape:document-units="px"
     inkscape:current-layer="layer2"
     showgrid="false"
     inkscape:window-width="1276"
     inkscape:window-height="977"
     inkscape:window-x="0"
     inkscape:window-y="45"
     inkscape:window-maximized="0">
    <inkscape:grid
       type="xygrid"
       id="grid3338" />
  </sodipodi:namedview>
  <metadata
     id="metadata3253">
    <rdf:RDF>
      <cc:Work
         rdf:about="">
        <dc:format>image/svg+xml</dc:format>
        <dc:type
           rdf:resource="http://purl.org/dc/dcmitype/StillImage" />
        <dc:title />
      </cc:Work>
    </rdf:RDF>
  </metadata>
  <g
     inkscape:label="bodyoutline"
     inkscape:groupmode="layer"
     id="bodyoutline">
    <path
       style="fill:#000000"
       d="M 268.10142,1006.7961 C 208.25547,955.08562 285.2712,873.77087 248.79162,808.40612 264.46086,721.12506 252.05855,635.35448 244.64293,548.29325 235.72426,499.09067 285.44379,372.0011 267.98016,337.91838 245.48772,414.26976 176.70811,509.1948 150.32217,576.8386 113.22413,634.31587 32.278045,589.07821 56.678698,531.52748 48.643011,503.4929 127.95067,457.57285 121.50158,400.09739 168.51042,344.55629 167.36886,272.41374 231.27802,230.18222 302.42021,219.58856 324.32055,179.00547 281.33831,126.14458 268.01348,54.706932 367.61205,10.308384 421.74999,59.393929 505.16381,104.25359 370.7231,208.74955 486.78897,219.61104 c 86.64472,20.68735 74.31017,110.66249 116.22541,167.3221 11.82896,77.36815 122.74273,100.15384 98.82437,176.37408 C 668.25094,647.51718 574.80519,541.63164 563.43032,489.7073 535.8393,471.3289 462.50116,345.44094 478.8451,342.07354 c 27.359,97.85942 34.96481,200.66197 24.43461,301.07676 23.93147,72.3737 -7.31615,211.73852 10.49471,282.43478 38.79515,69.65341 -71.24599,120.83632 -80.61352,34.0137 3.32412,-68.61488 -12.33415,-135.02108 -19.60206,-203.00439 1.30154,-62.32264 -37.02,-179.18887 -34.86219,-163.35687 -23.8139,127.97438 -43.20485,257.28692 -57.04066,386.3832 -4.4452,24.29768 -29.68699,36.66178 -53.55457,27.17538 z m 32.60896,-20.05249 c 21.67154,-121.05425 26.46212,-244.32168 56.81158,-364.13321 -7.93073,-85.86107 66.03435,-48.79368 56.67779,14.17635 11.35102,71.21785 17.31339,144.79371 30.86855,215.56588 8.02702,36.67216 -10.75672,166.11757 50.92579,122.90171 -12.1201,-69.95033 -1.28208,-135.85288 2.23645,-205.68466 -27.50762,-84.42461 16.66547,-169.80629 -10.11918,-254.30143 4.48613,-44.91211 -40.09183,-189.98011 0.16535,-211.72278 -1.64521,97.8006 104.22741,174.87002 132.21323,247.06602 59.61227,70.99818 106.03351,-40.55942 3.57467,-83.71293 C 561.77108,406.66613 579.06168,339.91934 522.97436,260.93168 477.43556,220.10079 364.99219,215.35567 433.13932,135.26022 454.93667,59.912659 322.5929,15.398319 302.87079,96.502031 c 11.16497,60.802059 47.34597,131.575209 -48.58097,141.309119 -79.10004,28.99298 -63.63868,96.07968 -110.9,168.01998 -12.05489,50.28869 -27.00336,96.15569 -64.106681,122.19799 0.52711,36.46377 31.762111,64.08252 65.953951,17.54759 30.66982,-62.1935 89.67617,-161.9563 110.50096,-230.31437 33.03661,-65.6609 40.84052,111.25676 20.24103,138.11577 -35.55407,87.91467 2.38348,180.2556 -3.67188,268.8919 -19.10275,61.7021 6.24078,124.65854 -1.23319,185.78668 -11.77946,25.88634 -22.99327,105.87131 29.63637,78.68692 z"
       id="outline"
       inkscape:connector-curvature="0"
       sodipodi:nodetypes="cccccccccccccccccccccccccccccccccccccccccccc"
       inkscape:label="#path3302" />
  </g>
  <g
     inkscape:groupmode="layer"
     id="lung"
     inkscape:label="lung">
    <path
       style="fill:#000000"
       d="m 287.59579,417.42447 c -2.777,-1.31973 -3.76038,-3.81742 -7.30903,-18.56445 -4.4238,-18.38388 -4.72256,-20.34468 -4.7519,-31.18649 -0.0362,-13.37671 1.56457,-20.06079 7.14221,-29.82256 1.93081,-3.37927 2.87432,-6.24777 3.99301,-12.1398 4.5505,-23.96718 13.20157,-45.68874 24.68149,-61.97156 9.14619,-12.97272 23.59247,-25.28975 34.43823,-29.36236 9.60949,-3.60837 13.03797,0.0612 14.52107,15.54229 0.95955,10.01611 0.0792,20.31885 -2.49666,29.21826 -1.71393,5.92153 -1.76045,9.18486 -0.14647,10.27355 1.09384,0.73782 8.31384,-8.32995 10.60915,-13.32423 13.25296,-19.737 7.9322,9.35833 3.34698,11.53931 -3.67588,3.86814 -4.87876,5.09982 -7.48006,7.16479 -3.42693,2.7204 -4.63369,4.09943 -4.38134,5.00682 2.6198,9.42043 5.74498,32.40013 6.22739,45.79045 0.32611,9.05208 0.17237,11.7933 -1.01161,18.03611 -2.48345,13.0947 -9.10204,25.0012 -17.21848,30.97519 -4.31057,3.1727 -22.17959,10.95083 -28.82815,12.54845 -3.55232,0.85361 -5.55589,1.79062 -7.00026,3.27384 -2.68941,2.76175 -8.60533,5.64402 -14.27609,6.95535 -5.65121,1.30683 -7.39149,1.31497 -10.05951,0.0471 z"
       id="path3297"
       inkscape:connector-curvature="0"
       sodipodi:nodetypes="csssssssssccsssssssscc" />
  </g>
  <g
     inkscape:groupmode="layer"
     id="breast"
     inkscape:label="breast">
    <path
       style="fill:#000000;fill-opacity:1"
       d="m 417.66761,317.8355 c 7.48652,-2.05663 42.62611,-7.41403 44.73341,-7.42815 2.45377,-0.40576 13.41633,-2.06605 18.9462,-0.83933 2.83593,3.08931 -5.97135,5.1569 -1.94341,17.64301 4.00515,12.41549 8.71237,16.64627 8.60675,25.1605 -0.16962,13.67143 -5.40447,23.12697 -17.47127,31.55819 -11.24649,7.85803 -24.26499,11.19344 -38.56414,9.88035 -3.52113,-0.32342 -7.39312,-0.80062 -8.60434,-1.0606 l -8e-5,-10e-6 c -8.9357,-1.91803 -20.30068,-7.65019 -26.59232,-13.41235 -4.61111,-4.22311 -7.5283,-10.60108 -8.77046,-14.05795 -1.969,-8.68172 0.17401,-12.04347 1.10197,-23.16357 0.43408,-2.29241 2.84363,-6.30205 4.08753,-8.27559 3.38433,-5.36924 5.29469,-6.56687 10.07597,-9.93941 4.21066,-2.37113 9.1448,-4.62303 14.39419,-6.06509 z"
       inkscape:connector-curvature="0"
       sodipodi:nodetypes="scssscccscccccs" />
  </g>
  <g
     inkscape:groupmode="layer"
     id="leukaemias"
     inkscape:label="leukaemias">
    <path
       style="fill:#000000"
       d="m 99.743365,580.86537 c 0.133726,-0.16055 0.346135,-0.25321 0.472085,-0.20595 0.37764,0.14178 0.17324,0.49579 -0.28688,0.49686 -0.235573,6.9e-4 -0.318923,-0.13036 -0.185205,-0.29091 z m 11.075855,1.85876 c 0.75663,-0.16915 1.18761,-0.0496 0.81391,0.22571 -0.1624,0.11965 -0.54236,0.14697 -0.84436,0.0607 -0.47332,-0.13484 -0.469,-0.17476 0.0305,-0.28641 z m 3.23903,-0.5538 c -0.01,-0.30693 0.3274,-0.85349 0.74843,-1.21456 0.425,-0.36448 1.009,-1.36115 1.31282,-2.2405 l 0.54743,-1.58394 0.6347,0.71401 c 0.75798,0.85273 0.59831,1.61759 -0.36778,1.76153 -0.8157,0.12152 -1.90158,1.82012 -1.57562,2.46469 0.15859,0.31362 0.0118,0.46394 -0.53183,0.54496 -0.61127,0.0911 -0.75402,0.008 -0.76797,-0.44614 z m -19.238497,-6.18929 c -0.0804,-0.12629 -0.03357,-0.55693 0.104091,-0.95699 0.311061,-0.90395 -0.09283,-4.5542 -0.566972,-5.1242 -0.192682,-0.23161 -0.268484,-0.92635 -0.168436,-1.54389 0.244209,-1.5076 2.436158,-6.12519 3.632277,-7.65183 l 0.96367,-1.22994 -0.42238,1.32007 c -0.232315,0.72603 -0.323117,1.74756 -0.201831,2.27004 0.200088,0.86195 0.16652,0.95215 -0.362316,0.9735 -0.970363,0.0392 -1.496848,0.93557 -2.048475,3.48761 -0.841346,3.89236 0.341602,8.11098 2.44152,8.70695 0.502585,0.14294 0.560204,0.23185 0.199679,0.30958 -0.278524,0.0601 -0.827994,-0.0398 -1.22103,-0.22198 -0.393036,-0.18214 -1.049655,-0.28121 -1.459135,-0.2202 -0.40948,0.0609 -0.810302,0.007 -0.890706,-0.11872 z m 13.961047,2.95887 c 0.25077,-2.29187 0.48945,-3.18506 0.87208,-3.26349 0.60623,-0.12426 0.8722,-1.18632 0.5192,-2.07316 -0.44277,-1.11246 0.79712,-4.75077 1.76259,-5.17193 0.65082,-0.28393 0.65664,-0.18449 0.0863,1.47309 -0.42597,1.23787 -0.52601,2.15794 -0.32955,3.03045 0.15519,0.6891 0.1312,1.69158 -0.0534,2.22776 -0.21905,0.63658 -0.61727,1.07462 -1.14766,1.2624 -0.95683,0.3387 -1.45275,1.51945 -1.05641,2.51518 0.15407,0.38714 0.16093,0.75588 0.0151,0.81944 -0.53276,0.23241 -0.75382,-0.0388 -0.66837,-0.81973 z m 2.88499,1.32405 c 0.0517,-0.15034 0.24056,-0.23272 0.41963,-0.18306 0.17905,0.0496 0.28323,0.21329 0.2315,0.36363 -0.0518,0.15035 -0.24057,0.23272 -0.41962,0.18308 -0.17908,-0.0496 -0.28325,-0.2133 -0.23151,-0.36365 z m -11.849633,-4.33407 c 0.422653,-0.29452 0.824863,-0.51985 0.893793,-0.50073 0.0689,0.0191 0.0195,0.34226 -0.10982,0.71814 -0.17333,0.50371 -0.40828,0.63535 -0.893789,0.50072 -0.627721,-0.17408 -0.622557,-0.20784 0.109816,-0.71813 z m 2.722703,-3.3123 c 0.40471,-1.21499 0.6954,-1.3568 1.43613,-0.70041 0.31844,0.28219 0.69785,0.51742 0.84313,0.52274 0.1453,0.006 0.12215,0.40816 -0.0513,0.89529 -0.26144,0.7336 -0.34428,0.78772 -0.48284,0.31524 -0.0921,-0.31371 -0.37243,-0.62729 -0.62323,-0.69684 -0.25079,-0.0696 -0.67941,0.0475 -0.95245,0.25988 -0.40445,0.31476 -0.43582,0.20431 -0.1693,-0.5959 z m -25.73948,-8.14332 c 0.126279,-0.36696 0.420247,-0.70632 0.653262,-0.75409 0.964083,-0.19762 2.434049,-2.04267 3.113719,-3.90823 0.581344,-1.59564 0.696438,-1.75755 0.711237,-1.00051 0.0097,0.49677 -0.419083,1.87662 -0.952863,3.06633 -0.895934,1.99693 -0.931178,2.22488 -0.458754,2.96695 0.28147,0.4421 0.398446,0.85327 0.259967,0.91369 -0.138472,0.0604 -0.375106,-0.0836 -0.525723,-0.32049 -0.377013,-0.59217 -1.257182,-0.79263 -1.912653,-0.43556 -0.801703,0.4367 -1.149111,0.23017 -0.888192,-0.52809 z m 39.77098,11.38564 c -0.013,-0.20948 -0.0885,-1.16819 -0.16754,-2.13044 -0.10051,-1.22331 -9.5e-4,-1.87129 0.32995,-2.15427 0.26054,-0.22261 0.96819,-1.2449 1.57258,-2.27181 0.89714,-1.52428 1.16578,-2.30996 1.46331,-4.27954 0.22102,-1.46304 0.7039,-3.12591 1.22697,-4.22528 3.56606,-7.49481 4.13841,-10.10717 2.60674,-11.89789 -0.49938,-0.58387 -1.21038,-1.58334 -1.57997,-2.22107 -0.36959,-0.63774 -0.92426,-1.22948 -1.2326,-1.31499 -0.88825,-0.24634 -2.35213,1.74667 -3.29452,4.48531 -0.71924,2.0901 -0.75832,2.50754 -0.32991,3.52326 0.7244,1.71743 0.77823,2.5645 0.23901,3.76119 l -0.48674,1.08023 -0.01,-1.05055 c -0.0104,-1.18064 -0.77781,-1.61934 -1.26152,-0.72099 -0.17441,0.32393 -0.32059,1.76561 -0.32483,3.20373 -0.01,3.07278 -1.18867,7.70936 -1.96936,7.74089 -0.34704,0.014 -0.35662,-0.31766 -0.0361,-1.24922 0.2745,-0.79772 0.30004,-1.5098 0.0688,-1.91907 -0.30172,-0.53411 -0.25714,-0.7566 0.24881,-1.24127 0.33904,-0.3248 0.76394,-1.01923 0.94424,-1.54318 0.38807,-1.12778 0.17838,-3.18523 -0.31434,-3.08423 -0.78653,0.16124 0.19132,-3.59328 1.11055,-4.26392 0.42158,-0.3076 0.53366,-0.77209 0.49795,-2.06388 -0.0446,-1.61491 0.007,-1.74958 1.62391,-4.31283 3.45574,-5.4751 3.47213,-5.50991 4.00823,-8.51061 0.5539,-3.10023 2.17383,-6.76104 4.27805,-9.66777 2.36298,-3.26416 3.25164,-11.22546 1.31302,-11.76306 -0.28703,-0.0795 -0.90952,0.18571 -1.3833,0.58956 -0.74328,0.63359 -0.80677,0.64527 -0.46299,0.0853 0.21914,-0.35696 1.17209,-2.18128 2.11765,-4.05401 1.93467,-3.8317 2.26971,-4.29526 6.46759,-8.94871 3.28433,-3.64077 4.93881,-6.54379 4.38905,-7.7013 -0.25304,-0.53278 -0.44568,-0.59332 -2.16962,-0.68188 -1.04055,-0.0535 -1.97955,-0.0589 -2.08666,-0.0122 -0.10711,0.0467 -1.03555,1.2402 -2.0632,2.65215 -1.02766,1.412 -2.98777,3.60429 -4.35581,4.87181 -3.01812,2.79637 -4.3267,4.91267 -5.4094,8.74838 -0.66712,2.36345 -1.0094,3.07528 -2.21315,4.60275 -2.07364,2.63133 -2.98339,4.77638 -2.46989,5.82367 0.35351,0.72102 0.51363,0.80972 1.2611,0.69833 0.79267,-0.11809 0.82342,-0.087 0.41452,0.41994 -0.24292,0.30113 -0.85181,1.39022 -1.35311,2.42024 -0.5013,1.03001 -0.86662,1.67918 -0.81185,1.4426 0.0548,-0.23659 -0.0409,-1.40847 -0.21256,-2.60416 -0.17169,-1.19571 -0.15608,-2.64023 0.0347,-3.21009 0.48109,-1.43692 -0.19343,-1.80086 -1.96309,-1.05915 -2.4861,1.04195 -3.67626,2.51208 -5.08497,6.2812 -0.84596,2.26344 -1.63734,3.83827 -2.50927,4.99343 -1.51167,2.00272 -1.46964,1.4159 0.0523,-0.72989 0.77152,-1.08781 1.41244,-2.59946 2.36637,-5.58128 l 1.30828,-4.08943 -1.17025,-0.22656 c -0.64366,-0.12456 -1.5814,-0.13544 -2.0839,-0.024 -0.68186,0.15107 -0.84634,0.12163 -0.64838,-0.11607 0.14586,-0.17515 0.30862,-1.05293 0.36169,-1.95064 0.12882,-2.17941 0.50057,-3.07922 0.53661,-1.29889 0.028,1.37641 0.70163,2.52855 1.62909,2.78575 0.81253,0.22532 3.91347,-0.52443 6.15014,-1.487 3.14409,-1.35308 3.85134,-2.34095 6.08349,-8.49753 l 1.79282,-4.94486 2.45391,-2.20597 c 3.01451,-2.70996 2.97658,-3.15505 -0.22866,-2.68341 -1.19618,0.17599 -3.25113,0.23642 -4.56653,0.1342 -1.80254,-0.13999 -2.98917,-0.0102 -4.81755,0.52689 -1.33427,0.39198 -3.09809,0.77151 -3.91964,0.84342 -0.82153,0.0719 -1.84986,0.30635 -2.2852,0.52099 -0.98277,0.48457 -1.27048,0.41547 -1.24899,-0.29993 0.01,-0.31791 -0.45339,-0.84683 -1.07408,-1.22723 -1.03373,-0.6335 -1.17424,-0.64165 -2.68135,-0.15557 -0.87475,0.28213 -2.03008,0.49815 -2.56738,0.48003 -1.11732,-0.0377 -3.242553,-1.24214 -4.163315,-2.35954 -0.320772,-0.38929 -0.80808,-0.6987 -1.082909,-0.6876 -0.274824,0.0111 -1.159416,0.73521 -1.965758,1.60908 -1.301709,1.41076 -4.863754,4.25605 -4.687705,3.74444 0.03749,-0.10899 1.216297,-1.19067 2.619546,-2.40376 2.715797,-2.34777 3.683883,-3.78466 4.030432,-5.98229 0.182198,-1.1554 0.112536,-1.34545 -0.52898,-1.44263 -0.57558,-0.0873 -1.024542,0.23009 -2.031958,1.43621 -1.819194,2.17798 -3.007046,3.05438 -5.509,4.06448 -6.075602,2.4529 -7.01634,3.07864 -8.949546,5.9528 -0.906439,1.34763 -1.268553,2.89171 -1.094739,4.66798 0.111572,1.14023 -0.583843,3.11507 -1.358065,3.85677 -0.668924,0.64082 -0.818051,0.65543 -1.346138,0.13185 -0.275228,-0.27288 -0.12634,-0.51512 0.713641,-1.16116 0.891466,-0.68563 1.078432,-1.01219 1.167593,-2.03932 0.135393,-1.55959 -0.614541,-1.98158 -1.7613,-0.99107 -1.733968,1.49771 -1.057791,0.4084 2.938514,-4.73388 2.177463,-2.80186 3.548575,-3.7879 7.929482,-5.70251 3.196382,-1.39693 4.350444,-2.06736 5.114021,-2.97099 1.229498,-1.45498 1.409446,-1.96322 0.91799,-2.59295 -0.340775,-0.43664 -0.257129,-0.4996 0.689735,-0.51912 0.9946,-0.0205 4.996797,-2.09153 6.495309,-3.36114 1.17559,-0.996 2.62093,-3.30886 2.4632,-3.94165 -0.24592,-0.98672 -0.97725,-0.93141 -2.85315,0.21578 -1.628889,0.99614 -2.603997,1.4347 -4.999833,2.2488 l -0.889362,0.3022 1.213062,-1.29829 c 0.681681,-0.72956 1.538739,-1.32636 1.956489,-1.36236 0.408883,-0.0353 1.484454,-0.57088 2.390154,-1.19033 1.95783,-1.33903 4.83534,-1.80079 8.29477,-1.33108 1.65463,0.22467 2.49081,0.16994 3.45902,-0.22639 2.21947,-0.90854 4.16705,-1.23083 6.19312,-1.02485 3.74419,0.38062 8.02305,-0.99522 13.16213,-4.23228 1.66014,-1.0457 4.71903,-2.65838 6.7975,-3.58372 3.45496,-1.53815 3.91928,-1.84594 5.41432,-3.58897 0.8994,-1.04857 2.70012,-3.09344 4.00158,-4.54411 3.14215,-3.50242 4.3832,-5.1308 8.57192,-11.24725 3.99347,-5.83131 6.38356,-8.52441 11.99803,-13.51895 5.88597,-5.23606 6.75744,-6.36383 10.83741,-14.02445 4.46599,-8.38539 4.77861,-9.11546 3.99635,-9.33239 -0.24733,-0.0686 -1.02086,0.22221 -1.71894,0.64621 -0.69808,0.424 -2.95383,1.65121 -5.01279,2.72713 -6.70811,3.50542 -8.32752,4.72722 -13.5206,10.20097 -4.25851,4.48869 -6.58706,6.27025 -12.50568,9.56807 -1.57732,0.87885 -3.6867,2.39441 -4.77393,3.42993 -2.32994,2.21913 -5.9978,6.623 -7.29357,8.7571 -1.26596,2.08498 -4.06708,5.57545 -4.55453,5.67537 -0.55384,0.11355 2.21477,-6.68811 4.10023,-10.07298 2.30518,-4.13842 7.31212,-10.76657 8.58711,-11.36757 0.46713,-0.2202 2.60292,-3.10217 4.65002,-6.27463 0.80567,-1.24858 1.35885,-1.7537 2.33435,-2.13154 1.22635,-0.47503 1.26662,-0.5282 0.98815,-1.30466 -0.35899,-1.00089 -0.22072,-1.41059 1.57128,-4.65608 0.7886,-1.42822 3.20886,-5.87742 5.37837,-9.88711 2.16951,-4.00967 4.82459,-8.66325 5.90015,-10.34125 1.07556,-1.67803 2.44928,-3.82897 3.05269,-4.77988 2.59196,-4.08473 7.17588,-9.02895 13.38131,-14.43312 3.85807,-3.35989 6.01732,-5.4379 5.87797,-5.65678 -1.28636,-2.02056 -21.23146,9.49047 -25.44851,14.68724 -0.55817,0.68786 -0.80858,0.82376 -0.89985,0.48837 -0.161,-0.59165 1.89566,-4.63937 2.36115,-4.64697 0.19195,-0.003 0.8351,-0.43113 1.42921,-0.95112 3.33045,-2.91493 12.48955,-8.41682 17.3748,-10.43709 8.77399,-3.62846 10.29668,-4.37686 12.15715,-5.97519 4.07876,-3.50408 8.5431,-9.50706 10.34113,-13.90527 1.2329,-3.01578 1.41038,-3.81295 2.76151,-12.404 1.01752,-6.46976 2.09721,-12.38684 3.01641,-16.53082 0.41295,-1.86175 1.04991,-4.91903 1.41547,-6.79394 0.61767,-3.168 4.88924,-17.80129 5.90292,-20.22191 3.78761,-9.04459 10.34224,-18.85625 16.06202,-24.04329 4.71928,-4.27974 16.67096,-13.62666 19.87896,-15.54652 0.65819,-0.3939 1.98468,-1.23877 2.94777,-1.87747 3.77262,-2.50199 6.95064,-4.01731 12.96897,-6.18375 3.44685,-1.24078 6.40268,-2.21832 6.56854,-2.17233 0.35556,0.0986 -0.99784,1.01772 -3.79196,2.57518 -3.74325,2.08653 -10.51341,6.15101 -11.88638,7.13602 -0.75056,0.53848 -2.01322,1.33919 -2.80592,1.77935 -3.26575,1.81338 -12.08151,8.26372 -14.79787,10.82734 -0.69377,0.65476 -1.25542,1.40675 -1.24812,1.67111 0.008,0.26434 -0.36484,0.70013 -0.82697,0.96842 -2.53248,1.47018 -7.43378,6.64761 -11.23933,11.87255 -4.49211,6.16757 -6.08694,9.03305 -8.27954,14.87622 -1.93414,5.15437 -4.31193,13.47694 -4.91476,17.20214 -0.15303,0.94569 -0.99322,5.42882 -1.86708,9.9625 -0.87386,4.53367 -1.67367,9.21347 -1.77735,10.39956 -0.37416,4.2806 -2.15926,12.32108 -3.73381,16.81802 -1.3569,3.8754 -1.77165,4.72099 -3.68441,7.5122 -2.23756,3.26514 -5.36502,7.05954 -8.10678,9.83555 -1.65061,1.67125 -2.11062,2.44667 -1.69211,2.85233 0.3339,0.32365 4.5559,-0.29382 9.02635,-1.3201 2.03369,-0.4669 4.74081,-1.08216 6.01581,-1.36726 5.29726,-1.18452 9.05299,-3.17379 14.30138,-7.5749 3.55155,-2.9782 6.98268,-7.3683 9.63482,-12.32771 7.06444,-13.21018 13.8473,-28.1733 13.70265,-30.22823 -0.10229,-1.45276 3.29152,-2.06662 4.66339,-0.8435 0.84066,0.7495 1.29257,3.83991 0.76849,5.25536 -0.92054,2.48621 -3.30933,7.11432 -3.96951,7.69063 -0.51106,0.44613 -0.82543,1.09479 -1.0265,2.11798 -0.16925,0.86136 -1.25551,3.38398 -2.61123,6.06413 -1.27678,2.52407 -3.16697,6.30856 -4.20043,8.40997 -1.90066,3.8648 -5.13522,9.29583 -8.41812,14.13456 -2.50203,3.6878 -3.90715,7.05703 -4.33746,10.40046 -0.49262,3.82771 -0.24683,3.59951 -3.04218,2.82432 l -2.4159,-0.66995 0.0701,-0.95376 c 0.0385,-0.52455 0.31992,-1.9624 0.62537,-3.19522 0.42868,-1.73024 0.44397,-2.27239 0.067,-2.37692 -0.44918,-0.12457 -8.77095,3.72441 -8.90695,4.11964 -0.11542,0.3354 -1.12564,0.63472 -1.98954,0.58945 -0.47979,-0.0251 -2.36158,0.3179 -4.18178,0.76233 -3.7817,0.92331 -4.958,1.7263 -8.59829,5.86947 -4.11758,4.68639 -7.1207,10.26999 -11.44988,21.28834 -2.9595,7.53236 -5.44593,13.35362 -7.4266,17.38727 -1.38078,2.81199 -1.23756,3.56609 0.78398,4.12669 1.05764,0.29331 1.5719,0.25169 2.53405,-0.20503 2.86389,-1.35943 8.00309,-6.14816 11.07533,-10.32003 2.18292,-2.96425 7.62351,-7.54319 10.77028,-9.06456 1.84716,-0.89304 4.17607,-3.47969 7.76357,-8.62273 4.84978,-6.95268 6.18303,-9.43459 7.66682,-14.27206 l 1.20618,-3.93249 2.36251,0.65515 c 2.35439,0.65292 3.25879,1.29621 2.98155,2.12081 -0.19889,0.59186 0.42781,6.10287 0.85981,7.55998 0.37429,1.26239 0.31142,1.82892 -0.5179,4.66704 -0.88942,3.04381 -2.30106,5.75874 -2.68263,5.15936 -0.0827,-0.12979 0.21254,-1.17319 0.65594,-2.31866 0.70803,-1.82912 0.77884,-2.50024 0.58162,-5.51246 -0.24655,-3.76562 -0.87561,-6.40662 -1.52586,-6.40621 -0.26712,1.3e-4 -0.89618,1.1154 -1.73749,3.08042 -0.89762,2.09652 -2.00679,4.02834 -3.47328,6.04939 -4.74421,6.5382 -5.43542,7.61252 -7.26057,11.28497 -2.84375,5.722 -7.87964,22.08322 -7.25096,23.55786 0.0885,0.20746 0.0421,0.61381 -0.10271,0.90299 -2.41597,4.82057 -4.25388,7.50922 -6.49564,9.50239 -0.67067,0.5963 -1.27509,1.06874 -1.34318,1.04985 -0.0681,-0.0189 0.64315,-2.01257 1.58049,-4.43043 2.66644,-6.87792 3.20848,-10.28568 1.54661,-9.72334 -0.5916,0.20018 -4.50195,3.99868 -5.6746,5.51226 -0.31509,0.40668 -1.85036,2.339 -3.41172,4.29401 -1.56136,1.95502 -4.26163,5.55255 -6.00059,7.99452 -2.2037,3.09458 -3.43032,4.5571 -4.0481,4.82661 -1.95253,0.85182 -1.2511,-1.34367 1.60152,-5.01286 0.87634,-1.12718 1.78027,-2.13097 2.00872,-2.23064 0.22846,-0.0997 0.56649,-0.62035 0.75118,-1.15709 0.6372,-1.85171 5.51147,-8.00099 10.90761,-13.76082 5.93052,-6.33019 6.6768,-7.46609 8.89838,-13.54397 1.86424,-5.10023 1.87971,-5.16918 1.22076,-5.44206 -1.35351,-0.56048 -6.07109,3.01632 -10.06456,7.63083 -0.74713,0.86329 -2.01582,2.33055 -2.81932,3.26056 -1.74062,2.01467 -5.97113,5.77804 -8.33984,7.41894 -1.32709,0.91933 -1.7193,1.36621 -1.79662,2.04697 -0.25276,2.22603 -1.50776,6.17976 -2.55561,8.05114 -2.09682,3.74475 -6.56459,9.70745 -7.40235,9.87918 -0.93244,0.19114 -0.75707,-0.65986 0.41809,-2.02909 2.65724,-3.09598 4.79864,-6.64014 6.26629,-10.37115 1.77343,-4.50835 1.73343,-5.01656 -0.45278,-5.75563 -1.75529,-0.59339 -1.93898,-0.48764 -3.441,1.98091 -1.28232,2.10743 -3.83307,4.87364 -8.13577,8.82299 -1.86022,1.70745 -3.8578,3.6463 -4.43908,4.30856 -0.5813,0.66224 -1.30071,1.33859 -1.59872,1.50299 -0.80312,0.44302 -5.28655,6.0588 -8.70981,10.90958 -3.3022,4.67924 -4.56327,6.2434 -7.88938,9.78546 -2.7861,2.967 -3.56648,4.34031 -3.01807,5.31113 0.87179,1.54324 3.31584,1.19434 6.19552,-0.88447 1.08577,-0.78378 3.09752,-1.96099 4.47056,-2.616 2.68576,-1.28127 3.42946,-2.05719 5.45006,-5.68636 1.77545,-3.18888 10.99348,-13.00354 12.10111,-12.88437 0.32664,0.0351 0.51034,0.23613 0.42975,0.47028 -0.0774,0.22487 -1.84244,2.13703 -3.92235,4.24922 -4.86187,4.93732 -7.06754,7.67268 -7.32413,9.08303 -0.44256,2.43253 0.82101,2.8752 3.94017,1.38035 4.93167,-2.36349 7.91866,-4.89432 11.72037,-9.93046 2.58904,-3.42972 3.07018,-3.92473 3.7767,-3.88552 1.73116,0.096 1.41072,0.74749 -3.20729,6.52053 -5.15785,6.44787 -6.67979,8.11273 -10.69939,11.70402 -5.16436,4.61407 -6.30104,6.35771 -8.47651,13.00277 -1.57424,4.80865 -1.61489,4.8916 -3.45234,7.04524 -1.02265,1.19862 -2.75099,3.07739 -3.84077,4.17505 -1.08978,1.09764 -2.76472,3.0586 -3.72209,4.35766 -1.49743,2.03184 -1.83755,2.72305 -2.43379,4.94578 -0.6271,2.33786 -0.6353,2.80596 -0.0862,4.9168 0.38212,1.46879 0.53107,3.25158 0.40213,4.81294 -0.1698,2.05618 -0.0341,2.92385 0.79417,5.07754 0.54942,1.42868 0.96061,2.70901 0.91374,2.84525 -0.13182,0.38305 0.63176,1.23081 0.97393,1.08126 0.16757,-0.0733 0.84842,-1.68902 1.51298,-3.59064 1.1471,-3.28236 1.30132,-3.55296 3.0447,-5.34369 1.35584,-1.39265 2.10243,-2.47849 2.85301,-4.14952 0.87003,-1.93693 1.0332,-2.15075 1.1316,-1.48282 0.16436,1.11553 -1.93208,5.62862 -2.81786,6.06509 -1.52551,0.75217 -2.51797,2.36007 -3.77537,6.11653 -0.84295,2.51818 -1.52339,4.03986 -2.2067,4.93466 -0.91767,1.20164 -1.00325,1.48804 -1.20236,4.02412 -0.12904,1.64385 -0.42443,3.07761 -0.74228,3.60296 -0.66063,1.09189 -0.73129,2.31731 -0.14301,2.48046 0.49514,0.1373 0.55639,1.50417 0.083,1.85291 -0.18713,0.13789 -0.47037,-0.0161 -0.74899,-0.40749 -0.96871,-1.36042 -1.97709,-0.3741 -3.18617,3.11651 -0.61828,1.78512 -1.04439,5.64497 -0.70137,6.35424 0.32577,0.67364 -1.24518,3.49141 -2.03918,3.65759 -0.64348,0.13466 -0.63342,-0.0235 0.15116,-2.37694 0.46227,-1.38666 1.10585,-3.93509 1.43011,-5.66319 0.32426,-1.72807 0.7938,-3.51646 1.04341,-3.97416 0.34515,-0.6329 0.32933,-0.91612 -0.066,-1.18268 -0.39227,-0.2645 -1.02861,-0.0927 -2.59272,0.69988 -2.93992,1.48979 -3.70036,2.4794 -5.48681,7.14041 -0.82734,2.15858 -1.66749,4.18053 -1.86703,4.49326 -0.3596,0.56359 -0.36673,0.56236 -0.81394,-0.14008 -0.4282,-0.67265 -0.40629,-0.75383 0.43131,-1.59761 0.58659,-0.59091 1.1096,-1.59547 1.56,-2.99625 0.41872,-1.30226 1.19242,-2.83391 2.02524,-4.00925 0.7412,-1.04607 1.32868,-2.09131 1.30548,-2.32278 -0.025,-0.24905 -0.77225,-0.70555 -1.83088,-1.11842 -3.80307,-1.48326 -3.55547,-1.47792 -5.11131,-0.11039 -0.77331,0.67971 -1.32446,0.99885 -1.22477,0.70914 0.22559,-0.65558 4.03571,-5.26039 4.01667,-4.85442 -0.008,0.16256 -0.0413,0.65686 -0.0749,1.09844 -0.0737,0.96788 1.58262,2.46374 3.23531,2.92205 1.8373,0.50951 5.31089,-0.14189 7.08262,-1.32823 1.70893,-1.14427 2.80985,-2.91386 2.52467,-4.05807 -0.1609,-0.6455 -0.39927,-0.75849 -3.0243,-1.43385 -3.03427,-0.78064 -4.55133,-1.67242 -6.06621,-3.56609 -0.98608,-1.23264 -1.39066,-0.88407 -1.88364,1.62297 -0.45172,2.2972 -0.97689,4.09708 -1.12489,3.85521 -0.0506,-0.0827 0.12688,-1.30229 0.39433,-2.71033 0.26746,-1.40806 0.4501,-3.11673 0.40588,-3.7971 -0.0443,-0.68033 0.0797,-2.03016 0.2753,-2.99956 0.19565,-0.96942 0.26306,-1.85239 0.14981,-1.96221 -0.11329,-0.10976 -1.1679,-0.0624 -2.34364,0.10539 -1.17575,0.16775 -2.4072,0.23026 -2.73658,0.1389 -0.32936,-0.0914 -0.75975,-0.0476 -0.95639,0.0974 -0.19666,0.1449 -0.92659,1.86261 -1.62205,3.81716 -0.95574,2.68595 -1.63359,4.07287 -2.77604,5.67977 -2.47159,3.47645 -4.00759,9.34439 -3.29977,12.60613 0.27053,1.24666 1.29944,2.70927 2.05288,2.91822 0.7033,0.19503 2.45869,-1.68358 2.98879,-3.1986 0.36796,-1.05078 0.5345,-1.25412 0.75057,-0.91474 0.15279,0.24 0.67937,0.54773 1.17018,0.68383 0.49081,0.13611 0.93655,0.38318 0.99055,0.54904 0.0539,0.16586 -0.69323,0.90491 -1.66052,1.64238 -1.92377,1.46665 -1.6473,0.91935 -4.1211,8.15798 -0.64232,1.8805 -1.34656,3.90854 -1.56411,4.50695 -0.54931,1.51043 -0.53326,2.69676 0.0386,2.85534 0.3563,0.0988 0.36865,0.46358 0.0474,1.39726 -0.3789,1.10108 -0.48328,1.2014 -0.81204,0.78016 -0.20747,-0.26585 -0.51431,-0.42359 -0.68182,-0.35053 -0.27092,0.11815 -1.61304,3.31122 -2.90301,6.90658 -0.5049,1.40728 -0.17969,2.86486 0.7508,3.36499 0.43382,0.23318 0.48409,0.54466 0.20887,1.29452 -0.29099,0.79284 -0.37758,0.86317 -0.43951,0.35681 -0.10557,-0.8632 -0.76141,-1.64409 -1.28983,-1.53579 -0.24901,0.051 -0.54166,0.55985 -0.68122,1.18434 -0.24728,1.10642 -0.42533,1.35638 -0.46892,0.65838 z m 29.23627,-44.67207 c 0.80239,-0.0526 1.38481,-0.27346 1.48245,-0.56207 0.0884,-0.26149 0.20171,-1.8828 0.25166,-3.60296 0.0695,-2.40424 -0.13176,-3.8543 -0.87149,-6.26988 -0.69374,-2.26533 -0.91768,-3.74566 -0.80242,-5.30427 0.24017,-3.24747 -0.58141,-6.40994 -1.74942,-6.73383 -0.36454,-0.10115 -0.98528,0.12831 -1.50442,0.55596 -0.72628,0.59831 -1.13077,1.43349 -2.26932,4.68568 -0.762,2.1767 -1.83388,4.87741 -2.38185,6.00163 -0.9594,1.96822 -0.98064,2.11933 -0.57304,4.07562 0.46191,2.217 1.74704,4.50663 3.17583,5.65818 1.15356,0.92974 3.53086,1.60817 5.24201,1.49595 z M 132.95641,521.201 c 0.67604,-0.13486 1.81083,-0.64662 2.52176,-1.13726 1.22848,-0.84781 1.37837,-1.10481 3.02213,-5.18142 2.08811,-5.17863 2.21961,-5.39446 4.80632,-7.88952 1.12722,-1.08727 2.62517,-2.89519 3.32878,-4.01759 2.29517,-3.66126 3.35512,-5.00303 6.30614,-7.98289 3.23255,-3.26417 3.95159,-4.23093 3.69259,-4.96475 -0.15452,-0.4378 -0.30451,-0.47074 -1.24284,-0.27293 -0.5869,0.12371 -2.90649,0.44013 -5.15463,0.70311 -4.62027,0.54051 -5.37405,0.82208 -7.41459,2.76949 -1.29226,1.23327 -1.57596,1.7301 -2.58273,4.52305 -1.27448,3.53561 -2.60331,5.59561 -5.46786,8.47649 -2.36074,2.37422 -4.46557,5.3585 -5.11933,7.25837 -0.72722,2.11333 -0.58539,4.99751 0.31815,6.4696 0.86012,1.40132 1.29628,1.58334 2.98611,1.24625 z m -29.41112,-19.23089 c 1.78598,-0.35629 2.32997,-0.96347 3.70592,-4.13648 1.00558,-2.31889 1.51369,-3.11146 2.68931,-4.19492 2.01679,-1.85867 2.61498,-3.58512 1.89814,-5.47836 -0.46728,-1.23412 -0.69399,-1.46485 -1.71653,-1.74695 -3.28659,-0.90712 -4.54231,-0.37654 -6.24923,2.63907 -0.48705,0.8605 -1.64366,2.21285 -2.57019,3.00519 -1.434604,1.22681 -1.772015,1.70756 -2.273557,3.23945 -0.763368,2.33163 -0.394551,4.07944 1.173097,5.55929 1.37948,1.3022 1.76101,1.42932 3.34307,1.11371 z m 10.36143,0.78822 c 0.63581,-0.13761 1.94217,-0.54961 2.90305,-0.91555 1.62482,-0.61883 1.81703,-0.79727 2.74687,-2.54973 0.54988,-1.0364 1.87247,-2.78427 2.93903,-3.88415 2.30361,-2.37554 2.69851,-3.34826 2.35879,-5.81002 -0.14036,-1.01716 -0.13042,-2.21201 0.0221,-2.65529 0.63004,-1.8309 -0.0904,-2.34745 -2.50919,-1.79887 -1.34656,0.30539 -3.64657,0.36507 -5.97587,0.15501 -0.54756,-0.0494 -1.55789,0.15556 -2.24516,0.45538 -1.38362,0.60362 -1.51921,0.96891 -1.50343,4.05059 0.0104,1.98563 -0.51032,2.9502 -2.57283,4.76822 -1.44228,1.27131 -1.56138,1.47723 -2.02426,3.49953 -0.67907,2.96682 -0.33571,3.48685 2.91986,4.42224 1.22531,0.35209 2.14749,0.4344 2.94102,0.26264 z m 9.69878,-1.23873 c 1.81798,-0.14305 4.74735,-0.94323 5.18016,-1.41501 0.1915,-0.20872 -0.0292,-0.96635 -0.54189,-1.85999 -0.47574,-0.8293 -1.09978,-2.21656 -1.38675,-3.08281 -0.74658,-2.2537 -1.42193,-2.2515 -3.49691,0.0114 -0.90299,0.98477 -1.98954,2.16567 -2.41455,2.62421 -1.10825,1.19572 -1.38899,2.21881 -0.84383,3.07514 0.50873,0.79905 0.82644,0.85772 3.50377,0.64706 z m 8.23125,-3.92085 c 0.70288,-0.67758 1.17625,-1.66467 2.12292,-4.42685 l 1.21845,-3.55477 -0.64076,-3.47151 c -0.35243,-1.90931 -0.64087,-3.76223 -0.64101,-4.11762 -3.6e-4,-1.0419 -0.80601,-1.33486 -2.16307,-0.78654 -2.8025,1.13237 -5.3493,3.75231 -5.71781,5.88201 -0.2877,1.66269 1.0891,7.05957 2.35039,9.21332 1.26724,2.16391 2.18811,2.49871 3.471,1.26199 z m 5.92867,-2.06146 c 0.62449,-0.19497 2.26848,-1.43152 3.90046,-2.93382 2.71085,-2.49546 2.90715,-2.61352 5.02906,-3.02449 1.21446,-0.23522 2.60591,-0.41774 3.09211,-0.40563 2.96759,0.0738 6.8798,-1.20305 8.09348,-2.64199 0.41315,-0.48978 1.06789,-1.88067 1.45501,-3.09083 1.59198,-4.97651 4.31815,-9.07589 7.97595,-11.99359 1.07212,-0.85522 1.99296,-1.68171 2.04627,-1.83667 0.19181,-0.55738 -0.85697,-0.52514 -2.80026,0.0861 -1.08845,0.34235 -2.80564,0.72929 -3.81599,0.85986 -1.01035,0.13056 -2.12244,0.47413 -2.47128,0.76348 -0.34887,0.28935 -1.3807,0.70712 -2.29298,0.92835 -0.91226,0.22124 -2.37194,0.87267 -3.24372,1.44763 -3.97078,2.61886 -6.75919,3.45015 -9.25302,2.75858 -2.24429,-0.62237 -5.40449,0.0438 -8.07801,1.70299 -2.12019,1.31574 -2.51911,2.81548 -1.80478,6.78526 0.74267,4.12717 0.74302,4.0022 -0.0185,6.69661 -0.97058,3.43419 -0.2788,4.66767 2.18617,3.89817 z m 15.95071,-56.32719 c 2.34206,-1.49801 4.13454,-3.09554 6.87102,-6.12369 4.76968,-5.27806 8.83134,-8.15677 19.4564,-13.78973 0.93959,-0.49813 2.55084,-1.68265 3.58056,-2.63226 1.86601,-1.72085 1.87837,-1.74227 3.72821,-6.45203 4.29684,-10.94004 9.22513,-20.28276 13.344,-25.29662 2.3295,-2.83569 1.19437,-2.93777 -6.17772,-0.55557 -7.0433,2.27597 -10.4025,4.82733 -17.53439,13.31765 -5.27216,6.27636 -8.53739,11.20792 -11.85227,17.90084 -3.72942,7.52988 -9.07069,16.56107 -12.86259,21.74848 -2.43696,3.33383 -1.90467,4.02659 1.44678,1.88293 z M 81.618795,566.01483 c 0.03927,-0.11419 0.397819,-0.2759 0.796735,-0.35937 0.998665,-0.209 3.17175,-2.88205 3.780004,-4.64967 0.276163,-0.80254 0.434139,-1.96281 0.351098,-2.57845 -0.173839,-1.28849 0.0637,-1.68055 3.469481,-5.72654 2.743583,-3.2593 3.079473,-3.52722 2.590513,-2.06629 -0.212862,0.63714 -0.230855,1.30064 -0.03956,1.48622 0.268022,0.26001 0.15752,0.65301 -0.492003,1.74992 -0.802741,1.35564 -0.831827,1.37353 -0.697867,0.42916 0.195979,-1.38157 -0.388544,-1.57142 -1.594371,-0.51792 -0.953753,0.83327 -1.168271,1.32654 -2.914932,6.70284 -1.785722,5.49657 -1.913734,5.78645 -2.420677,5.48296 -0.332754,-0.19921 -0.825192,-0.16799 -1.301577,0.0825 -0.751721,0.3953 -1.667758,0.37409 -1.52685,-0.0356 z m 45.206275,7.50591 c 0.0808,-0.2344 0.26699,-0.30951 0.41409,-0.16694 0.14708,0.14257 0.22758,0.37497 0.17892,0.51643 -0.0487,0.1415 -0.23503,0.21661 -0.41409,0.16694 -0.17907,-0.0496 -0.25957,-0.28206 -0.17892,-0.51643 z m 3.34783,-0.4014 c 0.20695,-0.60138 0.52276,-1.05277 0.70183,-1.00312 0.17906,0.0496 0.15625,0.58232 -0.0506,1.18369 -0.20694,0.60137 -0.52275,1.05279 -0.70181,1.00313 -0.17907,-0.0496 -0.15626,-0.58233 0.0508,-1.1837 z m -25.96191,-7.38652 c 0.0446,-0.17279 0.49229,-0.7896 0.99502,-1.3707 0.50272,-0.58109 1.53824,-2.43312 2.30116,-4.11564 0.76289,-1.68251 1.70215,-3.51072 2.08723,-4.06269 1.09846,-1.57454 1.41613,-2.83777 1.35139,-5.37395 -0.0331,-1.29402 0.12248,-3.09344 0.34553,-3.99873 0.53116,-2.1555 -0.10972,-2.75124 -2.16932,-2.01654 -0.97223,0.34681 -2.63039,1.79505 -2.87754,2.51325 -0.15616,0.45382 -0.40158,0.49943 -1.31866,0.2451 -0.7297,-0.20234 -1.42445,-0.17072 -1.97134,0.0897 l -0.84452,0.40218 1.08927,-2.96751 c 0.86766,-2.36383 1.02816,-3.13792 0.78889,-3.80511 -0.16521,-0.46066 -0.19078,-1.27033 -0.0568,-1.79924 0.36611,-1.4455 1.342,-3.92076 1.46768,-3.7232 0.20297,0.31882 -0.4776,5.93339 -0.99006,8.16763 -0.33305,1.45208 -0.37135,2.29727 -0.11197,2.47215 0.50907,0.34322 7.84916,-2.94034 8.84886,-3.95853 0.94651,-0.96399 1.30652,-2.06376 1.01382,-3.09713 -0.12657,-0.44682 -0.0721,-1.24021 0.12091,-1.76308 l 0.35105,-0.95069 -0.0544,0.95622 c -0.0778,1.36716 0.31726,1.98897 1.30249,2.05017 1.15826,0.0718 1.14109,0.77932 -0.0413,1.70168 -0.5287,0.41242 -1.58581,1.55157 -2.34913,2.53145 -1.26364,1.6221 -1.41282,1.96554 -1.66674,3.8373 -0.15337,1.13063 -0.10789,2.32431 0.10104,2.65257 0.31255,0.49094 0.16721,1.21512 -0.81907,4.08133 -0.83989,2.44073 -1.31115,3.45367 -1.57323,3.38154 -0.22404,-0.0622 -0.73072,0.64042 -1.26376,1.75177 -0.71246,1.48546 -0.83146,2.01668 -0.59775,2.66834 0.1605,0.44748 0.13698,1.26355 -0.0522,1.81345 -0.29936,0.86994 -0.39364,0.93626 -0.72579,0.51064 -0.47415,-0.60757 -1.08841,-0.39469 -2.07789,0.72012 -0.37606,0.42369 -0.64731,0.62898 -0.60275,0.45615 z m -24.655297,-9.14829 c 0.07454,-0.28272 0.536153,-0.74555 1.025813,-1.02849 0.489676,-0.28298 0.960908,-0.71251 1.047218,-0.95459 0.136798,-0.38367 0.179286,-0.37632 0.331406,0.0574 0.09598,0.27365 0.0096,0.98406 -0.192054,1.57867 -0.285351,0.8408 -0.428305,0.98414 -0.64437,0.64476 -0.399505,-0.62753 -1.026841,-0.72714 -1.39004,-0.22078 -0.28494,0.39726 -0.30115,0.39024 -0.178007,-0.0768 z m 52.807527,14.31524 c 0.0746,-0.21664 0.30823,-0.42929 0.51925,-0.47256 0.21103,-0.0432 0.29655,0.17462 0.19003,0.48419 -0.10652,0.30954 -0.34019,0.52221 -0.51924,0.47254 -0.17907,-0.0496 -0.26457,-0.26753 -0.19004,-0.48417 z m 3.30547,-1.22552 c 0.2827,-0.97045 -1.25836,-2.59539 -1.60092,-1.68812 -0.072,0.19085 -0.25694,0.0492 -0.42336,-0.32434 -0.43893,-0.98539 0.79052,-4.27425 2.03442,-5.4422 l 0.98479,-0.92465 -0.7425,2.03987 c -0.76968,2.11474 -0.71117,3.37907 0.22447,4.84871 0.33851,0.53174 0.31512,0.83693 -0.10554,1.37715 -0.42457,0.54518 -0.50422,0.56954 -0.37137,0.11356 z m -36.506395,-12.5495 c 0.183309,-0.90826 0.171105,-2.09924 -0.02711,-2.64668 -0.610771,-1.68666 0.923514,-5.2805 2.113474,-4.9505 0.13135,0.0365 -0.11874,1.28085 -0.55577,2.76537 -0.43699,1.48455 -0.844067,3.46718 -0.904541,4.40588 -0.07414,1.15137 -0.248123,1.76701 -0.53461,1.89199 -0.286516,0.12501 -0.31625,-0.35207 -0.09139,-1.46606 z m 29.352895,8.82235 c 0.0453,-1.0855 0.84033,-1.43236 1.07993,-0.47112 0.14473,0.58068 0.0567,0.76847 -0.46766,0.99721 -0.58155,0.25372 -0.64262,0.20125 -0.61227,-0.52609 z M 86.002683,547.69516 c 1.026688,-1.64314 2.185658,-5.7053 1.814994,-6.36145 -0.305673,-0.54111 -0.144425,-0.77044 1.696567,-2.41285 2.052693,-1.83131 2.342217,-1.82935 1.046133,0.007 -0.388822,0.55094 -1.434133,2.75441 -2.322883,4.89658 -0.932378,2.24733 -1.864872,4.07869 -2.204436,4.32939 -0.510251,0.37673 -0.514277,0.31572 -0.03038,-0.45875 z m 44.787877,9.67538 c -0.15962,-2.5002 -0.12348,-2.97845 0.21775,-2.88098 0.33296,0.0952 0.91462,2.40426 0.76271,3.02817 -0.10249,0.42105 -0.95234,0.29348 -0.98046,-0.14719 z M 86.260089,541.32865 c 0.161756,-0.44922 0.286899,-0.58036 0.277936,-0.29153 -0.009,0.28886 -0.141395,0.65639 -0.294263,0.81672 -0.152867,0.16034 -0.145527,-0.076 0.01631,-0.52519 z m 8.99641,1.69524 c 0.179775,-0.55461 1.126165,-1.93203 2.103069,-3.06093 1.276854,-1.4755 1.948486,-2.5532 2.389027,-3.83342 0.705435,-2.05003 0.683705,-2.9148 -0.115066,-4.57971 -1.006935,-2.09876 -2.205295,-1.79811 -3.992563,1.00168 -0.535915,0.83952 -1.277297,1.77927 -1.647506,2.08833 l -0.673113,0.56193 0.309217,-0.96227 c 0.270455,-0.84152 -0.576071,-4.24935 -1.494368,-6.01621 -0.260302,-0.50082 0.07171,-1.47693 0.725323,-2.13212 0.338635,-0.3395 0.433475,-0.3489 0.343271,-0.034 -0.302279,1.05508 -0.05137,3.60729 0.450425,4.58176 0.628149,1.2198 0.837066,1.32862 1.76956,0.92182 0.988122,-0.43107 4.040852,-10.53236 3.74832,-12.40294 -0.272396,-1.74183 -1.338556,-4.11415 -1.921658,-4.27585 -0.307062,-0.0851 -0.395881,-0.39764 -0.240971,-0.84782 0.230258,-0.66913 0.30765,-0.60172 1.260069,1.09803 1.192601,2.12841 1.966265,2.48394 3.053685,1.40324 0.73682,-0.73225 0.7352,-0.67102 -0.0429,1.62942 -0.44445,1.31473 -1.27832,3.19844 -1.852458,4.18617 -0.831021,1.42966 -1.087671,2.19921 -1.2586,3.77377 -0.261686,2.41066 -0.0076,3.25509 1.285509,4.27141 0.937559,0.73692 1.028619,0.76159 1.567599,0.42513 0.31471,-0.19648 0.94695,-1.15487 1.405,-2.1298 0.80122,-1.70537 3.30359,-5.05347 3.52133,-4.71145 0.0581,0.0913 -0.33945,0.76444 -0.88347,1.49588 -1.71726,2.30887 -2.97575,4.86881 -3.86794,7.86779 -0.47522,1.59748 -1.335554,3.79645 -1.911823,4.88668 -1.150827,2.17719 -1.374453,3.48453 -0.631294,3.69061 0.51092,0.1417 0.400816,0.59579 -0.442216,1.82371 -0.533156,0.7766 -0.614882,0.66482 -0.638197,-0.87284 -0.01111,-0.73426 -1.203388,-0.53955 -1.927383,0.31475 l -0.716653,0.84563 0.326915,-1.00836 z m 19.718121,-7.53134 c 0.12522,-0.31413 0.22464,-0.35748 0.25354,-0.11061 0.0262,0.22341 -0.0665,0.45597 -0.20597,0.51681 -0.13944,0.0608 -0.16082,-0.12197 -0.0476,-0.40619 z m 0.68836,-1.88023 c 0.16175,-0.44921 0.28691,-0.58035 0.27793,-0.29153 -0.01,0.28887 -0.14139,0.65639 -0.29425,0.81672 -0.15287,0.16036 -0.14553,-0.076 0.0163,-0.52519 z M 66.385353,519.08073 c 0.0203,-0.059 0.289536,-0.11763 0.598252,-0.13013 0.321853,-0.0131 0.436763,0.0691 0.269375,0.19242 -0.280574,0.20672 -0.943807,0.1591 -0.867627,-0.0624 z m 2.918616,0.33252 c -0.01025,-0.33462 -0.280346,-0.68096 -0.600174,-0.76965 -0.540301,-0.14983 -0.515507,-0.25366 0.349967,-1.46538 0.512318,-0.71728 1.024963,-1.57581 1.13922,-1.90786 0.193581,-0.56254 4.216528,-2.92105 4.427953,-2.59592 0.05271,0.0812 -0.746619,0.59827 -1.776367,1.14926 -2.078884,1.11238 -3.112708,2.36733 -2.974753,3.61103 0.177267,1.59796 0.102764,2.45369 -0.219358,2.51971 -0.180294,0.0369 -0.336221,-0.20656 -0.346488,-0.54119 z m 18.556814,-10.20441 c 0.992808,-2.22823 1.462611,-2.96926 2.151626,-3.39372 0.571725,-0.3522 0.559182,-0.26821 -0.110593,0.74078 -0.415478,0.62589 -0.891238,1.73383 -1.057266,2.46207 -0.271006,1.18874 -0.79972,1.81395 -1.394516,1.649 -0.116965,-0.0324 0.06785,-0.6886 0.410749,-1.45813 z m -13.438684,-4.85761 c 0.777824,-0.85038 1.611187,-1.76103 1.851912,-2.02365 0.240726,-0.26262 1.13635,-0.83576 1.990284,-1.27364 0.853942,-0.43792 2.112515,-1.09951 2.796822,-1.47018 l 1.244209,-0.67403 -1.209211,0.78512 c -0.66507,0.43181 -2.348334,1.85146 -3.740574,3.1548 -1.392239,1.30332 -2.940024,2.52223 -3.439514,2.70871 -0.907398,0.33873 -0.906985,0.33773 0.506072,-1.20713 z m 33.726061,9.95793 c -0.0289,-0.94387 -1.03578,-2.68112 -1.65303,-2.85228 -0.3064,-0.085 -0.76229,-0.065 -1.01309,0.0445 -0.32827,0.14322 -0.38496,-0.11906 -0.20229,-0.93639 l 0.25374,-1.13534 0.95236,0.88124 c 1.43439,1.32725 2.4698,3.20808 2.19912,3.99468 -0.28487,0.82787 -0.51146,0.82939 -0.53681,0.003 z m -21.859257,-18.1298 c -0.02626,-0.26201 0.477261,-0.66461 1.203369,-0.96214 l 1.248526,-0.51159 -0.694757,0.70564 c -1.025843,1.04194 -1.700147,1.33669 -1.757138,0.76809 z m 5.024309,-2.42769 c -0.06293,-0.19337 -0.342655,-0.34236 -0.621571,-0.3311 -0.388259,0.0158 -0.323538,-0.10739 0.276182,-0.52532 0.657397,-0.45812 0.80516,-0.46556 0.919238,-0.0463 0.07478,0.27474 0.39219,0.77759 0.705418,1.11741 l 0.569475,0.61784 -0.867149,-0.24046 c -0.476923,-0.13226 -0.918646,-0.3987 -0.981593,-0.59207 z"
       id="path4384"
       inkscape:connector-curvature="0" />
  </g>
  <g
     inkscape:groupmode="layer"
     id="melanoma"
     inkscape:label="melanoma">
    <path
       style="fill:#000000"
       d="m 492.90638,286.06991 c -3.88685,-0.75525 -2.0354,-9.8981 -6.54668,-12.06341 -1.7436,-2.55482 -0.68651,-9.42263 1.62912,-10.56981 0.93083,-0.84046 1.28094,-0.19443 1.90545,-1.31805 3.89808,-1.6308 4.56636,1.29231 7.13781,3.98778 1.40023,1.06472 2.58023,10.23734 1.78993,3.40315 0.70451,5.7212 -0.17386,4.98355 -0.7652,7.15159 -1.02686,2.25996 -1.27958,4.99039 -2.09198,6.14591 -0.20688,0.53658 -1.57664,3.57772 -3.05845,3.26284 z m 8.52772,59.00336 c -3.22235,2.79753 -3.75289,-2.7653 -7.44574,-0.76155 -1.99843,2.73105 -5.71608,-8.59849 -3.99473,-5.23614 0.77765,2.52214 -0.76462,-6.75609 -1.07615,-4.75513 -2.12796,-1.83802 1.39615,-9.48683 -0.30095,-4.41774 -0.63839,-6.05275 6.47393,-8.40887 10.08033,-3.33581 2.90523,3.52518 2.83077,10.69106 3.69778,16.42307 0.0471,0.90099 -0.25778,1.65315 -0.96057,2.0833 z m 31.69989,-12.30611 c -1.18716,1.525 -6.69199,2.31014 -7.87192,-1.1158 -0.99371,-0.72999 -1.75358,-1.44673 -2.27611,-6.85799 0.86427,4.43511 -0.21981,-6.7011 0.66046,-2.17109 -0.84661,-3.98788 -1.6662,-3.62908 -2.95823,-7.18455 3.36672,-6.59434 7.30558,-0.80695 7.86039,-1.27559 -2.41645,-0.54615 4.34173,2.06927 4.46745,2.96473 3.18492,3.73462 2.9959,12.78575 0.11796,15.64029 z m 3.74249,55.97422 c -4.66663,-1.49667 -2.3597,-0.72656 -2.80154,-1.4676 -3.89948,-1.68281 0.10682,1.34471 -3.49443,-1.82534 -1.70388,-4.41766 -4.26645,-10.41218 -3.04426,-12.00812 1.17684,-2.74041 4.61912,-5.37988 7.06117,-3.75718 1.75376,2.67101 0.99574,2.9298 1.38805,3.21521 2.93552,2.35744 3.27234,9.83273 1.87818,10.22549 -0.35708,-2.8654 0.26727,6.87512 0.2239,1.74899 0.29177,1.47943 -0.036,3.59855 -1.21107,3.86855 z M 470.49326,253.728 c 1.28125,-1.42324 -4.26724,3.83419 -2.27676,1.24529 -4.74764,1.68736 -5.38063,-15.36953 -3.96111,-3.51201 -3.11704,-6.60417 4.93695,-10.30218 3.62545,-8.58463 3.67378,1.07713 2.15167,6.64192 3.12599,6.77692 1.31002,-3.6561 -1.56,9.58468 -0.51357,4.07443 z m 116.44616,171.04173 c -2.77099,1.24847 -9.73874,1.98553 -9.98326,-3.84788 -1.01272,-7.01892 -0.76891,-4.1817 -0.10815,1.25059 -0.80808,-6.83009 -3.05321,-12.70107 0.3232,-16.10291 3.96092,-0.64154 4.83889,-1.4741 0.37384,-0.284 3.55036,-2.8356 7.34651,2.02084 8.27617,5.7118 0.75716,1.14979 1.1376,2.81072 2.55925,5.33163 0.32354,1.41822 0.91228,2.76497 0.68296,4.77758 -1.94233,2.29571 0.46521,1.07095 -2.12401,3.16318 z m -9.01682,44.62215 c 0.15984,2.07865 -7.60392,1.67201 -1.56319,1.91852 -3.48824,2.40085 -8.32965,-8.15907 -6.19804,-3.51285 -5.26309,-3.39813 0.0299,-11.53518 -0.59671,-13.91485 0.20414,6.73731 -0.99359,-7.52866 -1.36565,-3.10153 0.56328,-4.64865 4.55966,-3.44204 5.58599,-1.04742 1.91052,1.29589 3.86816,4.34416 4.31905,9.2332 -1.29773,4.24065 -0.54392,3.05725 -0.86877,4.33544 0.50584,-0.80698 2.28558,7.95584 0.68732,6.08949 z m -32.43339,-46.95509 c -2.69406,-0.50172 -4.14583,0.76904 -0.4987,0.12803 -4.0389,0.38492 -4.52446,-1.51941 -9.07139,-3.2452 -1.22797,-2.41238 -2.16384,-2.5566 -1.37579,-7.6188 0.86965,-0.85138 1.27253,-5.17891 2.5272,-6.18402 2.52733,-0.59282 6.33077,1.36791 5.70251,0.7838 0.99449,0.90968 3.62931,2.71924 3.80274,3.91898 1.58917,3.06767 1.77221,12.66711 1.03563,4.23146 -1.17433,-6.18184 1.70181,8.11919 -2.1222,7.98573 z"
       id="path4615"
       inkscape:connector-curvature="0" />
  </g>
  <g
     inkscape:groupmode="layer"
     id="colorectal"
     inkscape:label="colorectal">
    <path
       style="fill:#000000"
       d="m 376.04958,600.94551 c -2.39171,-0.63931 -3.12785,-1.87578 -3.12785,-5.25382 0,-2.7541 -0.12871,-3.08635 -2.22746,-5.75093 -1.26115,-1.60111 -2.68863,-4.1476 -3.29047,-5.86983 -1.01049,-2.89166 -1.03062,-3.27846 -0.40756,-7.83235 0.59465,-4.34636 0.56713,-5.27403 -0.29698,-10.00656 -1.28708,-7.04892 -1.51134,-15.25998 -0.51844,-18.98125 0.87497,-3.27925 2.80997,-6.87873 4.58121,-8.52193 0.66647,-0.6183 1.84732,-2.60494 2.6241,-4.41478 3.68407,-8.58348 8.98958,-12.82532 19.48328,-15.57725 2.3625,-0.61956 4.6623,-1.12647 5.11065,-1.12647 0.44837,0 1.41241,-0.34012 2.14233,-0.75582 3.27217,-1.86356 12.00448,-0.17795 14.43256,2.78593 0.62988,0.76885 1.84562,1.48255 3.06742,1.80074 1.11321,0.2899 2.80104,1.12009 3.75075,1.84487 1.55356,1.1856 2.06207,1.31908 5.06976,1.3308 3.32219,0.013 3.3503,0.004 4.51082,-1.5908 0.72328,-0.99335 1.97475,-1.9141 3.28778,-2.41894 l 2.11999,-0.8151 -0.23133,-3.47351 c -0.17181,-2.57956 -0.0202,-3.9542 0.58932,-5.3413 0.78233,-1.78054 0.77424,-1.95672 -0.17322,-3.77185 -1.21196,-2.3219 -1.27918,-4.55342 -0.20728,-6.88193 0.79664,-1.73057 0.78616,-1.79825 -0.72057,-4.65162 -1.65464,-3.13348 -2.54096,-5.96757 -2.56016,-8.18624 -0.007,-0.77202 -0.17986,-1.42087 -0.38481,-1.44189 -4.05395,-0.41577 -5.95365,-0.19592 -7.82612,0.90568 -3.14726,1.85159 -5.38382,2.30439 -9.98744,2.02201 -3.09541,-0.18987 -4.23178,-0.11015 -4.6481,0.3258 -0.30308,0.31743 -1.71794,1.02287 -3.14411,1.56771 -2.86639,1.09497 -8.04683,1.32245 -11.39244,0.50025 -1.49565,-0.36757 -2.43178,-0.29085 -4.96896,0.4072 -4.3023,1.18373 -9.41445,0.9259 -13.80935,-0.69645 -2.76244,-1.01973 -3.98482,-1.20356 -8.44722,-1.27039 -5.81759,-0.0871 -8.32201,-0.78921 -11.51944,-3.22935 -1.63248,-1.24582 -2.06656,-1.35804 -5.25392,-1.35804 -4.39455,0 -7.06514,-0.81908 -10.73381,-3.29212 -2.62532,-1.76974 -7.93824,-3.61804 -8.64191,-3.00641 -0.12714,0.11052 0.0554,1.17269 0.40557,2.36041 0.51898,1.7601 0.51773,2.59067 -0.007,4.49105 -0.48277,1.74915 -0.50436,2.55758 -0.0865,3.23637 0.30641,0.49763 0.55711,1.41839 0.55711,2.04614 0,0.69554 0.58974,1.65398 1.50988,2.45372 2.7071,2.35299 3.65303,4.48864 3.78914,8.55482 l 0.12292,3.67112 2.45028,1.36846 c 4.21293,2.3529 6.301,5.40155 7.13308,10.41458 0.76446,4.60556 -0.16103,7.34496 -3.57995,10.59646 -1.36466,1.29784 -2.48119,2.56856 -2.48119,2.82382 0,0.25526 0.45047,0.67367 1.00104,0.92979 0.55058,0.25611 1.55959,1.23471 2.24226,2.17468 1.49032,2.05198 2.32423,2.13864 3.80683,0.39563 2.20839,-2.59628 4.38045,-0.52316 2.83957,2.71021 -0.66377,1.39285 -4.14676,3.1086 -5.21569,2.5693 -0.32158,-0.16226 -1.33709,-1.15154 -2.25669,-2.19843 -2.00247,-2.27964 -4.10107,-3.7095 -4.8522,-3.30599 -0.30057,0.16146 -0.5465,0.92429 -0.5465,1.69517 0,2.91901 -4.17952,6.85864 -8.79404,8.28931 -2.23983,0.69442 -9.41296,0.78546 -12.57246,0.15956 -9.21652,-1.8258 -18.17793,-9.3311 -20.33131,-17.02773 -0.35288,-1.26129 -1.19992,-2.69841 -2.03648,-3.45518 -2.5918,-2.34462 -3.54347,-4.9339 -3.45862,-9.41022 0.0415,-2.18821 -0.0789,-5.45619 -0.26742,-7.26214 -0.35894,-3.43756 0.1329,-4.99536 2.23589,-7.08194 0.47884,-0.47509 1.0045,-1.90873 1.16815,-3.18587 0.16366,-1.27715 0.67806,-2.82685 1.14313,-3.44378 0.59914,-0.7948 0.85721,-2.08993 0.88553,-4.44423 0.0333,-2.77355 0.23224,-3.54855 1.20364,-4.69048 1.11051,-1.30543 1.13568,-1.49033 0.55101,-4.047 -0.56341,-2.46375 -0.52704,-2.8473 0.45257,-4.77219 0.90662,-1.78145 0.98628,-2.34797 0.53502,-3.80463 -0.37999,-1.22658 -0.37512,-2.09746 0.0171,-3.07372 0.40197,-1.00027 0.39172,-2.62456 -0.0387,-6.11309 -0.52369,-4.24559 -0.47807,-5.3618 0.42892,-10.49528 1.84838,-10.46175 4.15497,-11.7084 22.95641,-12.40722 3.3747,-0.12543 6.34342,-0.0252 7.28931,0.24615 1.75854,0.50446 5.65077,3.90264 5.65077,4.93353 0,0.35864 0.83852,1.11309 1.86336,1.67655 1.02486,0.56347 2.82512,1.93283 4.0006,3.04303 1.4338,1.35417 3.01567,2.30421 4.80612,2.88648 2.56775,0.83505 5.39133,2.99 6.69773,5.11173 0.30547,0.49611 0.93882,0.90216 1.40748,0.90234 1.6448,8.6e-4 7.07888,2.56998 8.9561,4.2346 1.68606,1.49512 2.25156,1.71638 5.09504,1.9935 1.75918,0.17146 4.15658,0.6786 5.32756,1.12701 1.68033,0.64347 2.80203,0.76066 5.32214,0.55612 1.93233,-0.15684 4.04567,-0.0517 5.35246,0.26633 1.8947,0.46109 2.54334,0.41309 5.29174,-0.39166 2.41416,-0.7069 4.18746,-0.90009 7.73422,-0.84262 4.03708,0.0655 4.78287,-0.0417 6.07632,-0.87295 1.60637,-1.03229 4.40559,-1.7252 7.03475,-1.74138 1.12869,-0.006 2.2109,-0.42042 3.32413,-1.27 1.10062,-0.83993 2.6126,-1.42266 4.53766,-1.74882 1.58788,-0.26905 3.68341,-0.86016 4.65675,-1.31359 0.97332,-0.45343 2.71812,-0.95624 3.87729,-1.11735 1.5868,-0.22055 2.41899,-0.64776 3.36762,-1.72877 0.69298,-0.78972 1.64966,-1.54335 2.12592,-1.67473 1.31194,-0.36193 3.58341,-3.66746 3.79589,-5.52394 0.10349,-0.90489 0.5306,-2.07002 0.94895,-2.58917 0.46091,-0.57196 0.76063,-1.88763 0.76063,-3.33892 0,-1.84304 0.28631,-2.76124 1.24225,-3.98401 0.68323,-0.87395 1.24222,-1.91295 1.24222,-2.3089 0,-1.44043 2.125,-3.89809 4.74977,-5.49336 3.48463,-2.11789 7.06403,-2.79028 11.02666,-2.07138 1.57144,0.2851 3.63976,0.60122 4.59629,0.70253 4.5194,0.47865 4.98674,0.65479 6.47491,2.44041 1.71672,2.05987 1.97742,4.8517 0.7101,7.60474 -0.58056,1.26113 -0.64054,1.94782 -0.24846,2.84418 0.77645,1.77506 0.62261,4.88053 -0.3189,6.4376 -0.57496,0.95087 -0.85313,2.52786 -0.8914,5.05334 -0.0556,3.66873 -0.71962,5.55256 -2.62252,7.43979 -0.67451,0.66898 -0.63595,1.058 0.37614,3.79385 1.41617,3.82819 1.17009,6.81505 -0.81435,9.88347 l -1.3847,2.1411 1.06021,2.73145 c 1.4125,3.63904 1.68073,5.67078 1.15889,8.778 -0.40843,2.43186 -0.3508,2.69772 0.93617,4.31897 0.75427,0.95016 1.62992,2.38822 1.94592,3.19569 0.72064,1.84146 0.74383,5.97094 0.0434,7.71746 -0.46423,1.15747 -0.35618,1.55423 0.85725,3.14797 1.6613,2.18202 2.18865,6.61086 1.11091,9.32982 -0.38453,0.97013 -0.66469,3.63186 -0.67464,6.40991 -0.0159,4.4738 -0.10802,4.90199 -1.57759,7.34224 -0.85833,1.42526 -2.03744,2.96571 -2.62025,3.42321 -0.58282,0.45752 -1.41022,1.87996 -1.83866,3.16097 -1.33522,3.9922 -3.56776,5.59436 -8.88419,6.37564 -1.37334,0.20184 -2.69288,0.86764 -4.28515,2.1622 -3.01027,2.44743 -5.49023,3.09929 -9.54118,2.5079 -2.8143,-0.41085 -3.2596,-0.36349 -5.32153,0.56581 -5.17503,2.33239 -10.11767,2.26704 -16.16719,-0.21377 -1.622,-0.66515 -4.52358,-1.62389 -6.44799,-2.13054 -3.91674,-1.03116 -8.9677,-3.66849 -10.47864,-5.47135 l -0.99629,-1.18877 -2.55869,1.12698 c -1.40728,0.61983 -2.90855,1.12698 -3.33614,1.12698 -1.28864,0 -1.34081,0.99118 -0.24547,4.66407 1.33318,4.4704 1.42183,9.41395 0.27244,15.19251 -0.69541,3.49618 -0.80675,5.31183 -0.49,7.99009 0.22544,1.9062 0.41364,6.08958 0.41821,9.29643 0.009,6.69891 -0.61112,8.46207 -4.1556,11.80438 -1.8416,1.73656 -2.0117,2.0974 -2.0117,4.26761 0,3.12666 -0.79586,4.97978 -2.45984,5.7277 -1.75019,0.78667 -8.25209,1.18895 -10.31295,0.63807 z"
       id="path5325"
       inkscape:connector-curvature="0" />
  </g>
  <g
     inkscape:groupmode="layer"
     id="brain"
     inkscape:label="brain">
    <path
       style="fill:#000000;fill-opacity:1"
       d="m 358.53937,137.39711 c -6.96154,-1.34547 -11.78977,-7.94636 -19.88324,-3.94323 -6.82721,1.09927 -16.16125,2.42579 -20.693,-2.53636 -4.40285,-3.43733 -8.4031,-7.12741 -8.73709,-11.99026 -4.31099,-4.74593 -1.78953,-10.15891 -0.70652,-15.27112 2.09444,-4.559522 1.25384,-9.398904 -0.53047,-13.960388 -1.24642,-6.178761 4.16423,-11.554701 8.92153,-16.291762 5.1193,-4.025888 12.46017,-5.949928 18.22363,-9.466926 7.45777,-4.65263 18.84212,-5.489123 28.17352,-4.572769 5.20335,4.270965 11.63476,-3.20208 18.90859,0.367618 8.18919,0.508839 15.97994,2.652098 20.88863,7.524121 6.65942,3.842102 15.65902,6.298978 17.64856,12.957879 7.27454,7.461651 -0.0389,16.551887 2.76665,24.663527 2.60144,6.83889 -0.691,13.52188 -3.61117,19.97095 -2.43907,4.43974 -7.43781,9.82317 -15.20562,8.83904 -8.5762,0.0347 -19.33258,-5.5038 -24.34693,1.43996 -5.41679,4.34432 -14.72843,2.81267 -21.81707,2.26972 z"
       id="path4208"
       inkscape:connector-curvature="0" />
  </g>
</svg>
